<svg width="31" height="30" viewBox="0 0 31 30" fill="none" xmlns="http://www.w3.org/2000/svg">
<path d="M0.499998 7.80812C0.499998 17.3536 13.1605 29.9976 22.6964 29.9976C24.7836 29.9976 26.7333 29.2105 28.1706 27.7737L29.4204 26.3369C30.8701 24.8875 30.8701 22.4387 29.3579 20.9269C29.3204 20.8894 26.3084 18.578 26.3084 18.578C24.8086 17.1537 22.4465 17.1537 20.9592 18.578L19.1345 20.0398C15.1352 18.3406 12.2981 15.492 10.4734 11.3564L11.9232 9.53231C13.3604 8.04551 13.3604 5.67163 11.9232 4.18484C11.9232 4.18484 9.61104 1.17376 9.57354 1.13628C8.06129 -0.375505 5.61168 -0.375505 4.09942 1.13628L2.78713 2.27324C1.28737 3.76004 0.499998 5.70912 0.499998 7.79563V7.80812Z" fill="white"/>
</svg>
